<mxfile host="app.diagrams.net" modified="2021-07-15T04:46:40.842Z" agent="5.0 (Windows NT 10.0; Win64; x64) AppleWebKit/537.36 (KHTML, like Gecko) Chrome/91.0.4472.124 Safari/537.36" etag="a-CxGv8Kb77IDgChdZYC" version="14.8.6" type="github">
  <diagram id="a5_WFIQ1Hj5Bvf1Ik7QF" name="Page-1">
    <mxGraphModel dx="1260" dy="595" grid="1" gridSize="10" guides="1" tooltips="1" connect="1" arrows="1" fold="1" page="1" pageScale="1" pageWidth="827" pageHeight="1169" math="0" shadow="0">
      <root>
        <mxCell id="0" />
        <mxCell id="1" parent="0" />
      </root>
    </mxGraphModel>
  </diagram>
</mxfile>
